<svg width="40" height="40" viewBox="0 0 40 40" fill="none" xmlns="http://www.w3.org/2000/svg">
<rect x="0.25" y="0.25" width="39.5" height="39.5" rx="3.75" fill="#0E9F2E" fill-opacity="0.15"/>
<rect x="0.25" y="0.25" width="39.5" height="39.5" rx="3.75" stroke="#0E9F2E" stroke-width="0.5"/>
<path d="M27.9262 20.9217L26.8637 15.8811C26.6585 14.7814 25.8683 14.125 24.75 14.125H16.25C15.6922 14.125 15.2207 14.2807 14.8522 14.5879C14.4836 14.895 14.2422 15.3286 14.1356 15.8791L13.0731 20.9217C13.066 20.9578 13.0624 20.9945 13.0625 21.0312V24.75C13.0625 25.3136 13.2864 25.8541 13.6849 26.2526C14.0834 26.6511 14.6239 26.875 15.1875 26.875H25.8125C26.3761 26.875 26.9166 26.6511 27.3151 26.2526C27.7136 25.8541 27.9375 25.3136 27.9375 24.75V21.0312C27.9374 20.9944 27.9336 20.9577 27.9262 20.9217ZM15.1762 16.0939V16.0846C15.2941 15.4727 15.6347 15.1882 16.2483 15.1882H24.75C25.3679 15.1882 25.7086 15.4721 25.8215 16.0817C25.8215 16.086 25.8231 16.0903 25.8238 16.0946L26.718 20.3406C26.722 20.36 26.7217 20.38 26.717 20.3992C26.7124 20.4184 26.7035 20.4363 26.691 20.4517C26.6785 20.467 26.6628 20.4793 26.6449 20.4878C26.6271 20.4963 26.6076 20.5007 26.5878 20.5007H22.625C22.4849 20.5 22.3503 20.5549 22.2507 20.6534C22.1511 20.7519 22.0946 20.8859 22.0938 21.0259C22.0938 21.4486 21.9258 21.854 21.627 22.1529C21.3281 22.4518 20.9227 22.6197 20.5 22.6197C20.0773 22.6197 19.6719 22.4518 19.3731 22.1529C19.0742 21.854 18.9063 21.4486 18.9063 21.0259C18.9059 20.9565 18.8919 20.8879 18.865 20.8239C18.8381 20.7599 18.7989 20.7018 18.7496 20.6529C18.7002 20.6041 18.6418 20.5655 18.5775 20.5392C18.5132 20.513 18.4444 20.4997 18.375 20.5H14.4122C14.3924 20.5 14.3729 20.4956 14.3551 20.4872C14.3372 20.4787 14.3215 20.4663 14.309 20.451C14.2965 20.4357 14.2876 20.4177 14.283 20.3985C14.2783 20.3793 14.278 20.3593 14.2821 20.34L15.1762 16.0939Z" fill="#0E9F2E"/>
<path d="M24.2188 17.3125H16.7812C16.6404 17.3125 16.5052 17.2565 16.4056 17.1569C16.306 17.0573 16.25 16.9221 16.25 16.7812C16.25 16.6404 16.306 16.5052 16.4056 16.4056C16.5052 16.306 16.6404 16.25 16.7812 16.25H24.2188C24.3596 16.25 24.4948 16.306 24.5944 16.4056C24.694 16.5052 24.75 16.6404 24.75 16.7812C24.75 16.9221 24.694 17.0573 24.5944 17.1569C24.4948 17.2565 24.3596 17.3125 24.2188 17.3125ZM24.75 19.4375H16.25C16.1091 19.4375 15.974 19.3815 15.8743 19.2819C15.7747 19.1823 15.7188 19.0471 15.7188 18.9062C15.7188 18.7654 15.7747 18.6302 15.8743 18.5306C15.974 18.431 16.1091 18.375 16.25 18.375H24.75C24.8909 18.375 25.026 18.431 25.1257 18.5306C25.2253 18.6302 25.2812 18.7654 25.2812 18.9062C25.2812 19.0471 25.2253 19.1823 25.1257 19.2819C25.026 19.3815 24.8909 19.4375 24.75 19.4375Z" fill="#0E9F2E"/>
</svg>
