<svg width="40" height="40" viewBox="0 0 40 40" fill="none" xmlns="http://www.w3.org/2000/svg">
<rect x="0.25" y="0.25" width="39.5" height="39.5" rx="3.75" fill="#0E9F2E" fill-opacity="0.15"/>
<rect x="0.25" y="0.25" width="39.5" height="39.5" rx="3.75" stroke="#0E9F2E" stroke-width="0.5"/>
<path d="M19 12V8H21V12H19ZM14.575 13.425L11.575 10.425L13 9L16 12L14.575 13.425ZM12 31C11.7167 31 11.4793 30.904 11.288 30.712C11.0967 30.52 11.0007 30.2827 11 30V22L13.1 16C13.2 15.7 13.3793 15.4583 13.638 15.275C13.8967 15.0917 14.184 15 14.5 15H17V13H20.275C19.875 13.5667 19.5627 14.1877 19.338 14.863C19.1133 15.5383 19.0007 16.2507 19 17H14.85L13.375 21H20.275C20.5583 21.4 20.875 21.771 21.225 22.113C21.575 22.455 21.9667 22.7507 22.4 23H13V27H27V23.925C27.35 23.875 27.6917 23.8 28.025 23.7C28.3583 23.6 28.6833 23.475 29 23.325V30C29 30.2833 28.904 30.521 28.712 30.713C28.52 30.905 28.2827 31.0007 28 31H27C26.7167 31 26.4793 30.904 26.288 30.712C26.0967 30.52 26.0007 30.2827 26 30V29H14V30C14 30.2833 13.904 30.521 13.712 30.713C13.52 30.905 13.2827 31.0007 13 31H12ZM14 26H17C17.2833 26 17.521 25.904 17.713 25.712C17.905 25.52 18.0007 25.2827 18 25C17.9993 24.7173 17.9033 24.48 17.712 24.288C17.5207 24.096 17.2833 24 17 24H14V26ZM26 26V24H23C22.7167 24 22.4793 24.096 22.288 24.288C22.0967 24.48 22.0007 24.7173 22 25C21.9993 25.2827 22.0953 25.5203 22.288 25.713C22.4807 25.9057 22.718 26.0013 23 26H26ZM25.275 19.25L28.75 15.8L27.7 14.75L25.275 17.125L24.3 16.15L23.25 17.225L25.275 19.25ZM26 12C27.3833 12 28.5627 12.4877 29.538 13.463C30.5133 14.4383 31.0007 15.6173 31 17C30.9993 18.3827 30.5117 19.562 29.537 20.538C28.5623 21.514 27.3833 22.0013 26 22C24.6167 21.9987 23.4377 21.511 22.463 20.537C21.4883 19.563 21.0007 18.384 21 17C20.9993 15.616 21.487 14.437 22.463 13.463C23.439 12.489 24.618 12.0013 26 12Z" fill="#0E9F2E"/>
</svg>
