<svg width="40" height="40" viewBox="0 0 40 40" fill="none" xmlns="http://www.w3.org/2000/svg">
<rect x="0.25" y="0.25" width="39.5" height="39.5" rx="3.75" fill="#509FEF" fill-opacity="0.2"/>
<rect x="0.25" y="0.25" width="39.5" height="39.5" rx="3.75" stroke="#2F80ED" stroke-width="0.5"/>
<path d="M26.4212 17.3511C26.3826 17.263 26.3287 17.1824 26.2619 17.1131L21.3869 12.2381C21.3176 12.1713 21.237 12.1174 21.1489 12.0788C21.1245 12.0674 21.0985 12.0609 21.0725 12.052C21.0045 12.0289 20.9337 12.015 20.8621 12.0106C20.845 12.0089 20.8296 12 20.8125 12H15.125C14.2288 12 13.5 12.7288 13.5 13.625V26.625C13.5 27.5212 14.2288 28.25 15.125 28.25H24.875C25.7712 28.25 26.5 27.5212 26.5 26.625V17.6875C26.5 17.6704 26.4911 17.655 26.4894 17.6371C26.485 17.5655 26.4711 17.4947 26.448 17.4267C26.4404 17.4007 26.4315 17.3755 26.4212 17.3511ZM23.7261 16.875H21.625V14.7739L23.7261 16.875ZM15.125 26.625V13.625H20V17.6875C20 17.903 20.0856 18.1097 20.238 18.262C20.3903 18.4144 20.597 18.5 20.8125 18.5H24.875L24.8766 26.625H15.125Z" fill="#2F80ED"/>
<path d="M15.6641 20.1249H24.3307V21.8041H15.6641V20.1249ZM15.6641 23.4833H24.3307V25.1624H15.6641V23.4833ZM15.6641 16.7666H17.8307V18.4458H15.6641V16.7666Z" fill="#2F80ED"/>
</svg>
