<svg width="76" height="76" viewBox="0 0 76 76" fill="none" xmlns="http://www.w3.org/2000/svg">
<circle cx="38" cy="38" r="37.5" stroke="#E62E2E"/>
<circle cx="38" cy="38" r="28" fill="#CC0000"/>
<path d="M46.6878 28.3259C46.119 27.7572 45.2003 27.7572 44.6315 28.3259L37.5003 35.4426L30.369 28.3113C29.8003 27.7426 28.8815 27.7426 28.3128 28.3113C27.744 28.8801 27.744 29.7988 28.3128 30.3676L35.444 37.4988L28.3128 44.6301C27.744 45.1988 27.744 46.1176 28.3128 46.6863C28.8815 47.2551 29.8003 47.2551 30.369 46.6863L37.5003 39.5551L44.6315 46.6863C45.2003 47.2551 46.119 47.2551 46.6878 46.6863C47.2565 46.1176 47.2565 45.1988 46.6878 44.6301L39.5565 37.4988L46.6878 30.3676C47.242 29.8134 47.242 28.8801 46.6878 28.3259Z" fill="white"/>
</svg>
