<svg width="40" height="40" viewBox="0 0 40 40" fill="none" xmlns="http://www.w3.org/2000/svg">
<rect x="0.25" y="0.25" width="39.5" height="39.5" rx="3.75" fill="#CFC923" fill-opacity="0.15"/>
<rect x="0.25" y="0.25" width="39.5" height="39.5" rx="3.75" stroke="#CFC923" stroke-width="0.5"/>
<path d="M29.5209 13.4844V12.7873C29.5209 12.6906 29.5593 12.5979 29.6277 12.5295C29.696 12.4611 29.7888 12.4227 29.8855 12.4227C29.9822 12.4227 30.0749 12.4611 30.1433 12.5295C30.2116 12.5979 30.2501 12.6906 30.2501 12.7873V13.4844C30.2501 13.5811 30.2116 13.6738 30.1433 13.7422C30.0749 13.8106 29.9822 13.849 29.8855 13.849C29.7888 13.849 29.696 13.8106 29.6277 13.7422C29.5593 13.6738 29.5209 13.5811 29.5209 13.4844ZM7.5212 21.9617C7.61789 21.9617 7.71062 21.9233 7.779 21.8549C7.84737 21.7865 7.88578 21.6938 7.88578 21.5971V20.4304C7.88578 20.3337 7.84737 20.241 7.779 20.1726C7.71062 20.1042 7.61789 20.0658 7.5212 20.0658C7.4245 20.0658 7.33177 20.1042 7.2634 20.1726C7.19503 20.241 7.15661 20.3337 7.15661 20.4304V21.5971C7.15661 21.6938 7.19503 21.7865 7.2634 21.8549C7.33177 21.9233 7.4245 21.9617 7.5212 21.9617ZM30.7495 12.2813H30.9756C31.0723 12.2813 31.165 12.2428 31.2334 12.1745C31.3018 12.1061 31.3402 12.0134 31.3402 11.9167C31.3402 11.82 31.3018 11.7272 31.2334 11.6589C31.165 11.5905 31.0723 11.5521 30.9756 11.5521H30.7495C30.6528 11.5521 30.5601 11.5905 30.4917 11.6589C30.4234 11.7272 30.385 11.82 30.385 11.9167C30.385 12.0134 30.4234 12.1061 30.4917 12.1745C30.5601 12.2428 30.6528 12.2813 30.7495 12.2813ZM6.65495 22.1075H6.07161C5.97492 22.1075 5.88219 22.1459 5.81382 22.2143C5.74544 22.2827 5.70703 22.3754 5.70703 22.4721C5.70703 22.5688 5.74544 22.6615 5.81382 22.7299C5.88219 22.7983 5.97492 22.8367 6.07161 22.8367H6.65495C6.75164 22.8367 6.84437 22.7983 6.91275 22.7299C6.98112 22.6615 7.01953 22.5688 7.01953 22.4721C7.01953 22.3754 6.98112 22.2827 6.91275 22.2143C6.84437 22.1459 6.75164 22.1075 6.65495 22.1075ZM28.7881 12.2813H29.0141C29.1108 12.2813 29.2035 12.2428 29.2719 12.1745C29.3403 12.1061 29.3787 12.0134 29.3787 11.9167C29.3787 11.82 29.3403 11.7272 29.2719 11.6589C29.2035 11.5905 29.1108 11.5521 29.0141 11.5521H28.7881C28.6914 11.5521 28.5986 11.5905 28.5303 11.6589C28.4619 11.7272 28.4235 11.82 28.4235 11.9167C28.4235 12.0134 28.4619 12.1061 28.5303 12.1745C28.5986 12.2428 28.6914 12.2813 28.7881 12.2813ZM7.8938 24.4992V23.3325C7.8938 23.2358 7.85539 23.1431 7.78702 23.0747C7.71865 23.0063 7.62591 22.9679 7.52922 22.9679C7.43253 22.9679 7.33979 23.0063 7.27142 23.0747C7.20305 23.1431 7.16464 23.2358 7.16464 23.3325V24.4992C7.16464 24.5959 7.20305 24.6886 7.27142 24.757C7.33979 24.8253 7.43253 24.8638 7.52922 24.8638C7.62591 24.8638 7.71865 24.8253 7.78702 24.757C7.85539 24.6886 7.8938 24.5959 7.8938 24.4992ZM29.8855 11.4114C29.9822 11.4114 30.0749 11.3729 30.1433 11.3046C30.2116 11.2362 30.2501 11.1435 30.2501 11.0468V10.3497C30.2501 10.253 30.2116 10.1603 30.1433 10.0919C30.0749 10.0235 29.9822 9.98511 29.8855 9.98511C29.7888 9.98511 29.696 10.0235 29.6277 10.0919C29.5593 10.1603 29.5209 10.253 29.5209 10.3497V11.0468C29.5209 11.1435 29.5593 11.2362 29.6277 11.3046C29.696 11.3729 29.7888 11.4114 29.8855 11.4114ZM7.88578 28.2857C7.81367 28.2857 7.74319 28.3071 7.68323 28.3472C7.62327 28.3872 7.57654 28.4442 7.54895 28.5108C7.52136 28.5774 7.51414 28.6507 7.5282 28.7214C7.54227 28.7922 7.57699 28.8571 7.62798 28.9081C7.67897 28.9591 7.74393 28.9938 7.81465 29.0079C7.88538 29.022 7.95868 29.0147 8.0253 28.9872C8.09192 28.9596 8.14886 28.9128 8.18892 28.8529C8.22898 28.7929 8.25036 28.7224 8.25036 28.6503C8.25036 28.5536 8.21195 28.4609 8.14358 28.3925C8.07521 28.3241 7.98248 28.2857 7.88578 28.2857ZM8.97078 22.0966H8.3962C8.2995 22.0966 8.20677 22.135 8.1384 22.2034C8.07003 22.2717 8.03162 22.3645 8.03162 22.4612C8.03162 22.5578 8.07003 22.6506 8.1384 22.7189C8.20677 22.7873 8.2995 22.8257 8.3962 22.8257H8.97953C9.07623 22.8257 9.16896 22.7873 9.23733 22.7189C9.3057 22.6506 9.34412 22.5578 9.34412 22.4612C9.34412 22.3645 9.3057 22.2717 9.23733 22.2034C9.16896 22.135 9.07623 22.0966 8.97953 22.0966H8.97078ZM29.4976 26.7764C29.4254 26.7764 29.355 26.7977 29.295 26.8378C29.235 26.8779 29.1883 26.9348 29.1607 27.0014C29.1331 27.068 29.1259 27.1413 29.14 27.2121C29.154 27.2828 29.1888 27.3478 29.2398 27.3987C29.2907 27.4497 29.3557 27.4845 29.4264 27.4985C29.4972 27.5126 29.5705 27.5054 29.6371 27.4778C29.7037 27.4502 29.7606 27.4035 29.8007 27.3435C29.8408 27.2835 29.8621 27.213 29.8621 27.1409C29.8621 27.0448 29.8241 26.9525 29.7564 26.8842C29.6886 26.8159 29.5967 26.7771 29.5005 26.7764H29.4976ZM35.2886 28.6503C35.2886 28.747 35.2502 28.8397 35.1818 28.9081C35.1134 28.9765 35.0207 29.0149 34.924 29.0149H9.7138C9.61711 29.0149 9.52438 28.9765 9.456 28.9081C9.38763 28.8397 9.34922 28.747 9.34922 28.6503C9.34922 28.5536 9.38763 28.4609 9.456 28.3925C9.52438 28.3241 9.61711 28.2857 9.7138 28.2857H13.4741C13.2929 28.058 13.168 27.7906 13.1095 27.5055H11.4696C11.1623 27.5053 10.8677 27.3832 10.6503 27.166C10.4329 26.9488 10.3106 26.6542 10.3103 26.3469V15.2242C10.3106 14.9169 10.4329 14.6223 10.6503 14.4051C10.8677 14.1878 11.1623 14.0657 11.4696 14.0655H26.1434C26.4507 14.0657 26.7454 14.1878 26.9627 14.4051C27.1801 14.6223 27.3024 14.9169 27.3028 15.2242V16.2552H28.0013V15.9504C28.0013 15.6764 28.1102 15.4136 28.3039 15.2198C28.4977 15.026 28.7605 14.9172 29.0345 14.9172C29.3086 14.9172 29.5714 15.026 29.7651 15.2198C29.9589 15.4136 30.0678 15.6764 30.0678 15.9504V16.2552H30.7371C31.0512 16.2562 31.3589 16.3436 31.6266 16.5076C31.8943 16.6717 32.1118 16.9063 32.2553 17.1856L34.453 21.5016C34.5714 21.742 34.633 22.0065 34.6331 22.2745V26.4738C34.6329 26.7475 34.524 27.0099 34.3304 27.2034C34.1368 27.3968 33.8743 27.5055 33.6006 27.5055H31.3402C31.2813 27.7905 31.1565 28.0578 30.9756 28.2857H34.9291C35.0254 28.2863 35.1176 28.325 35.1855 28.3933C35.2534 28.4616 35.2915 28.554 35.2915 28.6503H35.2886ZM28.8785 18.3727V21.1085H33.4351L32.0416 18.3727H28.8785ZM28.7327 16.2581H29.3408V15.9533C29.3408 15.8727 29.3088 15.7954 29.2517 15.7383C29.1947 15.6813 29.1174 15.6493 29.0367 15.6493C28.9561 15.6493 28.8787 15.6813 28.8217 15.7383C28.7647 15.7954 28.7327 15.8727 28.7327 15.9533V16.2581ZM16.0918 27.1409V27.1351C16.0918 26.8313 15.9711 26.5399 15.7563 26.3251C15.5415 26.1103 15.2501 25.9896 14.9463 25.9896C14.6425 25.9896 14.3511 26.1103 14.1363 26.3251C13.9215 26.5399 13.8008 26.8313 13.8008 27.1351V27.1424V27.149C13.8008 27.4528 13.9215 27.7441 14.1363 27.959C14.3511 28.1738 14.6425 28.2945 14.9463 28.2945C15.2501 28.2945 15.5415 28.1738 15.7563 27.959C15.9711 27.7441 16.0918 27.4528 16.0918 27.149V27.1409ZM16.786 26.7764H26.5736V15.2242C26.5734 15.1102 26.528 15.001 26.4473 14.9204C26.3667 14.8399 26.2574 14.7947 26.1434 14.7947H11.4696C11.3557 14.7947 11.2463 14.8399 11.1657 14.9204C11.085 15.001 11.0396 15.1102 11.0394 15.2242V26.3469C11.0396 26.4609 11.085 26.5701 11.1657 26.6506C11.2463 26.7311 11.3557 26.7764 11.4696 26.7764H13.1088C13.1927 26.3504 13.422 25.9669 13.7573 25.6912C14.0926 25.4155 14.5133 25.2647 14.9474 25.2647C15.3815 25.2647 15.8022 25.4155 16.1375 25.6912C16.4728 25.9669 16.7021 26.3504 16.786 26.7764ZM28.0268 28.2857C27.8459 28.0578 27.721 27.7905 27.6622 27.5055H26.9382C26.9287 27.5055 26.9207 27.5012 26.9112 27.5004C26.9017 27.4997 26.8944 27.5055 26.885 27.5055H16.786C16.7272 27.7905 16.6023 28.0578 16.4214 28.2857H28.0268ZM30.6467 27.1395C30.6405 26.8405 30.5177 26.5557 30.3045 26.346C30.0913 26.1363 29.8045 26.0183 29.5055 26.017C29.2064 26.0158 28.9187 26.1315 28.7037 26.3394C28.4888 26.5474 28.3636 26.8311 28.3549 27.13V27.1409V27.1512C28.3636 27.4499 28.4887 27.7334 28.7035 27.9412C28.9183 28.149 29.2059 28.2647 29.5047 28.2634C29.8036 28.2622 30.0902 28.1442 30.3032 27.9346C30.5163 27.725 30.6391 27.4405 30.6453 27.1417L30.6467 27.1395ZM31.3387 26.7749H33.5991C33.639 26.7754 33.6786 26.7679 33.7156 26.7529C33.7526 26.7378 33.7862 26.7156 33.8144 26.6874C33.8427 26.6592 33.865 26.6257 33.8801 26.5887C33.8953 26.5518 33.9028 26.5122 33.9025 26.4723V22.2745C33.902 22.123 33.8679 21.9736 33.8026 21.837H28.5139C28.4172 21.837 28.3245 21.7986 28.2561 21.7302C28.1877 21.6618 28.1493 21.5691 28.1493 21.4724V18.0081C28.1493 17.9114 28.1877 17.8187 28.2561 17.7503C28.3245 17.682 28.4172 17.6435 28.5139 17.6435H31.6697L31.607 17.5196C31.5248 17.3594 31.4002 17.2248 31.2469 17.1304C31.0935 17.0361 30.9172 16.9856 30.7371 16.9844H27.3028V26.7764H27.6615C27.7455 26.3504 27.9747 25.9669 28.31 25.6912C28.6453 25.4155 29.066 25.2647 29.5001 25.2647C29.9342 25.2647 30.3549 25.4155 30.6902 25.6912C31.0255 25.9669 31.2548 26.3504 31.3387 26.7764V26.7749ZM32.4405 25.8124H33.3403C33.437 25.8124 33.5297 25.774 33.5981 25.7056C33.6664 25.6372 33.7049 25.5445 33.7049 25.4478C33.7049 25.3511 33.6664 25.2584 33.5981 25.19C33.5297 25.1216 33.437 25.0832 33.3403 25.0832H32.4405C32.3438 25.0832 32.251 25.1216 32.1827 25.19C32.1143 25.2584 32.0759 25.3511 32.0759 25.4478C32.0759 25.5445 32.1143 25.6372 32.1827 25.7056C32.251 25.774 32.3438 25.8124 32.4405 25.8124ZM17.3088 22.2832H15.9518C15.8551 22.2832 15.7624 22.2448 15.694 22.1764C15.6257 22.1081 15.5872 22.0153 15.5872 21.9186V19.6524C15.5872 19.5557 15.6257 19.463 15.694 19.3946C15.7624 19.3262 15.8551 19.2878 15.9518 19.2878H17.3088V17.9308C17.3088 17.8341 17.3472 17.7414 17.4156 17.673C17.484 17.6047 17.5767 17.5663 17.6734 17.5663H19.9396C20.0363 17.5663 20.1291 17.6047 20.1974 17.673C20.2658 17.7414 20.3042 17.8341 20.3042 17.9308V19.2878H21.6612C21.7579 19.2878 21.8506 19.3262 21.919 19.3946C21.9874 19.463 22.0258 19.5557 22.0258 19.6524V21.9186C22.0258 22.0153 21.9874 22.1081 21.919 22.1764C21.8506 22.2448 21.7579 22.2832 21.6612 22.2832H20.3042V23.6402C20.3042 23.7369 20.2658 23.8296 20.1974 23.898C20.1291 23.9664 20.0363 24.0048 19.9396 24.0048H17.6734C17.5767 24.0048 17.484 23.9664 17.4156 23.898C17.3472 23.8296 17.3088 23.7369 17.3088 23.6402V22.2832ZM17.6734 21.5541C17.7701 21.5541 17.8628 21.5925 17.9312 21.6609C17.9996 21.7292 18.038 21.822 18.038 21.9186V23.2756H19.5751V21.9186C19.5751 21.822 19.6135 21.7292 19.6818 21.6609C19.7502 21.5925 19.8429 21.5541 19.9396 21.5541H21.2966V20.017H19.9396C19.8429 20.017 19.7502 19.9786 19.6818 19.9102C19.6135 19.8418 19.5751 19.7491 19.5751 19.6524V18.2954H18.038V19.6524C18.038 19.7491 17.9996 19.8418 17.9312 19.9102C17.8628 19.9786 17.7701 20.017 17.6734 20.017H16.3164V21.5541H17.6734ZM14.9478 26.7749C14.8757 26.7749 14.8052 26.7963 14.7452 26.8363C14.6853 26.8764 14.6385 26.9333 14.6109 27C14.5833 27.0666 14.5761 27.1399 14.5902 27.2106C14.6043 27.2813 14.639 27.3463 14.69 27.3973C14.741 27.4483 14.8059 27.483 14.8766 27.4971C14.9474 27.5111 15.0207 27.5039 15.0873 27.4763C15.1539 27.4487 15.2108 27.402 15.2509 27.342C15.291 27.2821 15.3123 27.2116 15.3123 27.1395C15.3123 27.0428 15.2739 26.9501 15.2056 26.8817C15.1372 26.8133 15.0445 26.7749 14.9478 26.7749Z" fill="#CFC923"/>
</svg>
