<svg width="45" height="40" viewBox="0 0 45 40" fill="none" xmlns="http://www.w3.org/2000/svg">
<rect width="45" height="40" rx="4" fill="#FFE6E6" fill-opacity="0.69"/>
<path opacity="0.4" d="M27.24 11.6504H18.76C16.29 11.6504 14.29 13.6604 14.29 16.1204V25.5304C14.29 27.9904 16.3 30.0004 18.76 30.0004H27.23C29.7 30.0004 31.7 27.9904 31.7 25.5304V16.1204C31.71 13.6504 29.7 11.6504 27.24 11.6504Z" fill="#CC0000"/>
<path d="M25.35 10H20.65C19.61 10 18.76 10.84 18.76 11.88V12.82C18.76 13.86 19.6 14.7 20.64 14.7H25.35C26.39 14.7 27.23 13.86 27.23 12.82V11.88C27.24 10.84 26.39 10 25.35 10Z" fill="#CC0000"/>
<path d="M25.5301 23.6189L24.0801 22.1689L25.4801 20.7689C25.7701 20.4789 25.7701 19.9989 25.4801 19.7089C25.1901 19.4189 24.7101 19.4189 24.4201 19.7089L23.0201 21.1089L21.5701 19.6589C21.2801 19.3689 20.8001 19.3689 20.5101 19.6589C20.2201 19.9489 20.2201 20.4289 20.5101 20.7189L21.9601 22.1689L20.4701 23.6589C20.1801 23.9489 20.1801 24.4289 20.4701 24.7189C20.6201 24.8689 20.8101 24.9389 21.0001 24.9389C21.1901 24.9389 21.3801 24.8689 21.5301 24.7189L23.0201 23.2289L24.4701 24.6789C24.6201 24.8289 24.8101 24.8989 25.0001 24.8989C25.1901 24.8989 25.3801 24.8289 25.5301 24.6789C25.8201 24.3889 25.8201 23.9189 25.5301 23.6189Z" fill="#B30000"/>
</svg>
