<svg width="40" height="40" viewBox="0 0 40 40" fill="none" xmlns="http://www.w3.org/2000/svg">
<rect x="0.25" y="0.25" width="39.5" height="39.5" rx="3.75" fill="#FECACA" fill-opacity="0.33"/>
<rect x="0.25" y="0.25" width="39.5" height="39.5" rx="3.75" stroke="#CC0000" stroke-width="0.5"/>
<path d="M20.2195 21.96C20.3261 21.96 20.4251 21.9413 20.5165 21.904C20.6078 21.8667 20.6971 21.8043 20.7845 21.717L23.6725 18.804C23.7658 18.7107 23.8168 18.5967 23.8255 18.462C23.8341 18.3273 23.7831 18.2053 23.6725 18.096C23.5658 17.9893 23.4478 17.936 23.3185 17.936C23.1891 17.936 23.0715 17.9893 22.9655 18.096L20.2185 20.881L16.7885 17.461H18.5575C18.6995 17.461 18.8185 17.4133 18.9145 17.318C19.0105 17.2227 19.0581 17.104 19.0575 16.962C19.0568 16.82 19.0091 16.701 18.9145 16.605C18.8198 16.509 18.7008 16.4613 18.5575 16.462H15.8655C15.6328 16.462 15.4401 16.5387 15.2875 16.692C15.1341 16.8453 15.0575 17.0377 15.0575 17.269V19.961C15.0575 20.1037 15.1051 20.2227 15.2005 20.318C15.2958 20.4133 15.4148 20.461 15.5575 20.461C15.7001 20.461 15.8191 20.4133 15.9145 20.318C16.0098 20.2227 16.0575 20.1037 16.0575 19.961V18.146L19.6535 21.742C19.7401 21.8293 19.8291 21.8873 19.9205 21.916C20.0118 21.9447 20.1111 21.959 20.2185 21.959M14.0955 26C13.6355 26 13.2511 25.846 12.9425 25.538C12.6338 25.23 12.4798 24.8457 12.4805 24.385V13.615C12.4805 13.155 12.6345 12.771 12.9425 12.463C13.2505 12.155 13.6348 12.0007 14.0955 12H24.8655C25.3255 12 25.7095 12.1543 26.0175 12.463C26.3255 12.7717 26.4798 13.156 26.4805 13.616V18.269L28.8225 15.927C28.9505 15.799 29.0985 15.767 29.2665 15.831C29.4345 15.895 29.5185 16.018 29.5185 16.2V21.8C29.5185 21.982 29.4345 22.1053 29.2665 22.17C29.0985 22.2333 28.9505 22.201 28.8225 22.073L26.4805 19.731V24.385C26.4805 24.845 26.3261 25.2293 26.0175 25.538C25.7088 25.8467 25.3248 26.0007 24.8655 26H14.0955ZM14.0955 25H24.8655C25.0448 25 25.1921 24.9423 25.3075 24.827C25.4228 24.7117 25.4805 24.5643 25.4805 24.385V13.615C25.4805 13.4357 25.4228 13.2883 25.3075 13.173C25.1921 13.0577 25.0448 13 24.8655 13H14.0955C13.9161 13 13.7688 13.0577 13.6535 13.173C13.5381 13.2883 13.4805 13.436 13.4805 13.616V24.385C13.4805 24.5643 13.5381 24.7117 13.6535 24.827C13.7688 24.9423 13.9161 25 14.0955 25Z" fill="#CC0000"/>
</svg>
