<svg width="45" height="40" viewBox="0 0 45 40" fill="none" xmlns="http://www.w3.org/2000/svg">
<rect width="45" height="40" rx="4" fill="#E4F7F0"/>
<path opacity="0.4" d="M28.5299 15.77C28.4599 15.76 28.3899 15.76 28.3199 15.77C26.7699 15.72 25.5399 14.45 25.5399 12.89C25.5399 11.3 26.8299 10 28.4299 10C30.0199 10 31.3199 11.29 31.3199 12.89C31.3099 14.45 30.0799 15.72 28.5299 15.77Z" fill="#008042"/>
<path opacity="0.4" d="M31.79 22.7004C30.67 23.4504 29.1 23.7304 27.65 23.5404C28.03 22.7204 28.23 21.8104 28.24 20.8504C28.24 19.8504 28.02 18.9004 27.6 18.0704C29.08 17.8704 30.65 18.1504 31.78 18.9004C33.36 19.9404 33.36 21.6504 31.79 22.7004Z" fill="#008042"/>
<path opacity="0.4" d="M17.44 15.77C17.51 15.76 17.58 15.76 17.65 15.77C19.2 15.72 20.43 14.45 20.43 12.89C20.43 11.3 19.14 10 17.54 10C15.95 10 14.65 11.29 14.65 12.89C14.66 14.45 15.89 15.72 17.44 15.77Z" fill="#008042"/>
<path opacity="0.4" d="M17.55 20.8486C17.55 21.8186 17.76 22.7386 18.14 23.5686C16.73 23.7186 15.26 23.4186 14.18 22.7086C12.6 21.6586 12.6 19.9486 14.18 18.8986C15.25 18.1786 16.76 17.8886 18.18 18.0486C17.77 18.8886 17.55 19.8386 17.55 20.8486Z" fill="#008042"/>
<path d="M23.1199 23.87C23.0399 23.86 22.9499 23.86 22.8599 23.87C21.0199 23.81 19.5499 22.3 19.5499 20.44C19.5499 18.54 21.0799 17 22.9899 17C24.8899 17 26.4299 18.54 26.4299 20.44C26.4299 22.3 24.9699 23.81 23.1199 23.87Z" fill="#008042"/>
<path d="M19.87 25.9406C18.36 26.9506 18.36 28.6106 19.87 29.6106C21.59 30.7606 24.4101 30.7606 26.1301 29.6106C27.64 28.6006 27.64 26.9406 26.1301 25.9406C24.4201 24.7906 21.6 24.7906 19.87 25.9406Z" fill="#008042"/>
</svg>
