<svg width="40" height="40" viewBox="0 0 40 40" fill="none" xmlns="http://www.w3.org/2000/svg">
<rect x="0.25" y="0.25" width="39.5" height="39.5" rx="3.75" fill="#EB9A03" fill-opacity="0.16"/>
<rect x="0.25" y="0.25" width="39.5" height="39.5" rx="3.75" stroke="#EB9A03" stroke-width="0.5"/>
<path d="M26 11H22.82C22.4 9.84 21.3 9 20 9C18.7 9 17.6 9.84 17.18 11H14C12.9 11 12 11.9 12 13V28C12 29.1 12.9 30 14 30H20.11C19.5176 29.4264 19.0362 28.7484 18.69 28H14V13H16V14C16 15.1 16.9 16 18 16H22C23.1 16 24 15.1 24 14V13H26V18.08C26.71 18.18 27.38 18.39 28 18.68V13C28 11.9 27.1 11 26 11ZM20 13C19.45 13 19 12.55 19 12C19 11.45 19.45 11 20 11C20.55 11 21 11.45 21 12C21 12.55 20.55 13 20 13ZM25 20C22.24 20 20 22.24 20 25C20 27.76 22.24 30 25 30C27.76 30 30 27.76 30 25C30 22.24 27.76 20 25 20ZM26.29 27L24.64 25.35C24.5458 25.2577 24.4919 25.1319 24.49 25V22.51C24.49 22.23 24.71 22.01 24.99 22.01C25.27 22.01 25.49 22.23 25.49 22.51V24.8L26.99 26.3C27.0367 26.3458 27.0739 26.4004 27.0994 26.4606C27.1249 26.5209 27.1382 26.5856 27.1385 26.651C27.1389 26.7165 27.1262 26.7813 27.1013 26.8418C27.0764 26.9023 27.0398 26.9573 26.9936 27.0036C26.9473 27.0498 26.8923 27.0864 26.8318 27.1113C26.7713 27.1362 26.7065 27.1489 26.641 27.1485C26.5756 27.1482 26.5109 27.1349 26.4506 27.1094C26.3904 27.0839 26.3358 27.0467 26.29 27Z" fill="#EB9A03"/>
</svg>
