<svg width="40" height="40" viewBox="0 0 40 40" fill="none" xmlns="http://www.w3.org/2000/svg">
<rect x="0.25" y="0.25" width="39.5" height="39.5" rx="3.75" fill="#C822D7" fill-opacity="0.01"/>
<rect x="0.25" y="0.25" width="39.5" height="39.5" rx="3.75" stroke="#C822D7" stroke-width="0.5"/>
<path d="M21.91 10.91L19.83 13H22C24.1217 13 26.1566 13.8429 27.6569 15.3431C29.1571 16.8434 30 18.8783 30 21H28C28 19.4087 27.3679 17.8826 26.2426 16.7574C25.1174 15.6321 23.5913 15 22 15H19.83L21.92 17.09L20.5 18.5L16 14L17.41 12.59L20.5 9.5L21.91 10.91ZM10 20V30H26V20H10ZM12 26.56V23.45C12.6011 23.1009 13.1009 22.6011 13.45 22H22.55C22.8991 22.6011 23.3989 23.1009 24 23.45V26.56C23.4075 26.9091 22.915 27.4051 22.57 28H13.45C13.0995 27.4025 12.5999 26.9064 12 26.56ZM18 27C18.828 27 19.5 26.105 19.5 25C19.5 23.895 18.828 23 18 23C17.172 23 16.5 23.895 16.5 25C16.5 26.105 17.172 27 18 27Z" fill="#C822D7"/>
</svg>
