<svg width="45" height="40" viewBox="0 0 45 40" fill="none" xmlns="http://www.w3.org/2000/svg">
<rect width="45" height="40" rx="4" fill="#E4F1FC"/>
<path opacity="0.4" d="M27.24 11.6504H18.76C16.29 11.6504 14.29 13.6604 14.29 16.1204V25.5304C14.29 27.9904 16.3 30.0004 18.76 30.0004H27.23C29.7 30.0004 31.7 27.9904 31.7 25.5304V16.1204C31.71 13.6504 29.7 11.6504 27.24 11.6504Z" fill="#0081CC"/>
<path d="M30.75 25.5H29.06V23.75C29.06 23.34 28.72 23 28.31 23C27.9 23 27.56 23.34 27.56 23.75V25.5H25.75C25.34 25.5 25 25.84 25 26.25C25 26.66 25.34 27 25.75 27H27.56V28.75C27.56 29.16 27.9 29.5 28.31 29.5C28.72 29.5 29.06 29.16 29.06 28.75V27H30.75C31.16 27 31.5 26.66 31.5 26.25C31.5 25.84 31.16 25.5 30.75 25.5Z" fill="#0081CC"/>
<path d="M25.35 10H20.65C19.61 10 18.76 10.84 18.76 11.88V12.82C18.76 13.86 19.6 14.7 20.64 14.7H25.35C26.39 14.7 27.23 13.86 27.23 12.82V11.88C27.24 10.84 26.39 10 25.35 10Z" fill="#1B88DF"/>
<path d="M26 20.9512H19C18.59 20.9512 18.25 20.6112 18.25 20.2012C18.25 19.7912 18.59 19.4512 19 19.4512H26C26.41 19.4512 26.75 19.7912 26.75 20.2012C26.75 20.6112 26.41 20.9512 26 20.9512Z" fill="#1B88DF"/>
<path d="M23.38 24.9512H19C18.59 24.9512 18.25 24.6112 18.25 24.2012C18.25 23.7912 18.59 23.4512 19 23.4512H23.38C23.79 23.4512 24.13 23.7912 24.13 24.2012C24.13 24.6112 23.79 24.9512 23.38 24.9512Z" fill="#1B88DF"/>
</svg>
