<svg width="40" height="40" viewBox="0 0 40 40" fill="none" xmlns="http://www.w3.org/2000/svg">
<rect x="0.25" y="0.25" width="39.5" height="39.5" rx="3.75" fill="#CFC923" fill-opacity="0.15"/>
<rect x="0.25" y="0.25" width="39.5" height="39.5" rx="3.75" stroke="#CFC923" stroke-width="0.5"/>
<path d="M27.222 17.5912L23.2845 13.6538C23.2061 13.5753 23.113 13.5131 23.0106 13.4706C22.9082 13.4281 22.7984 13.4063 22.6875 13.4062H15.9375C15.5645 13.4062 15.2069 13.5544 14.9431 13.8181C14.6794 14.0819 14.5312 14.4395 14.5312 14.8125V27.1875C14.5312 27.5605 14.6794 27.9181 14.9431 28.1819C15.2069 28.4456 15.5645 28.5938 15.9375 28.5938H26.0625C26.4355 28.5938 26.7931 28.4456 27.0569 28.1819C27.3206 27.9181 27.4688 27.5605 27.4688 27.1875V18.1875C27.4687 17.9639 27.38 17.7494 27.222 17.5912ZM24.8672 17.625H23.25V16.0078L24.8672 17.625ZM16.2188 26.9062V15.0938H21.5625V18.4688C21.5625 18.6925 21.6514 18.9071 21.8096 19.0654C21.9679 19.2236 22.1825 19.3125 22.4062 19.3125H25.7812V26.9062H16.2188ZM23.2845 21.597L22.1953 22.6875L23.2866 23.778C23.4451 23.9366 23.5341 24.1515 23.5341 24.3757C23.5341 24.5999 23.4451 24.8149 23.2866 24.9734C23.1281 25.1319 22.9131 25.2209 22.6889 25.2209C22.4647 25.2209 22.2498 25.1319 22.0913 24.9734L21 23.8828L19.9095 24.9741C19.7509 25.1326 19.536 25.2216 19.3118 25.2216C19.0876 25.2216 18.8726 25.1326 18.7141 24.9741C18.5556 24.8156 18.4666 24.6006 18.4666 24.3764C18.4666 24.1522 18.5556 23.9373 18.7141 23.7788L19.8047 22.6875L18.7155 21.597C18.6371 21.5185 18.5748 21.4253 18.5323 21.3227C18.4899 21.2202 18.468 21.1103 18.468 20.9993C18.468 20.8883 18.4899 20.7784 18.5323 20.6758C18.5748 20.5733 18.6371 20.4801 18.7155 20.4016C18.794 20.3232 18.8872 20.2609 18.9898 20.2184C19.0923 20.1759 19.2022 20.1541 19.3132 20.1541C19.4242 20.1541 19.5341 20.1759 19.6367 20.2184C19.7392 20.2609 19.8324 20.3232 19.9109 20.4016L21 21.4922L22.0905 20.4009C22.169 20.3225 22.2622 20.2602 22.3648 20.2177C22.4673 20.1752 22.5772 20.1534 22.6882 20.1534C22.7992 20.1534 22.9091 20.1752 23.0117 20.2177C23.1142 20.2602 23.2074 20.3225 23.2859 20.4009C23.3643 20.4794 23.4266 20.5726 23.4691 20.6751C23.5116 20.7777 23.5334 20.8876 23.5334 20.9986C23.5334 21.1096 23.5116 21.2195 23.4691 21.322C23.4266 21.4246 23.3643 21.5178 23.2859 21.5962L23.2845 21.597Z" fill="#CFC923"/>
</svg>
