<svg width="40" height="40" viewBox="0 0 40 40" fill="none" xmlns="http://www.w3.org/2000/svg">
<rect x="0.25" y="0.25" width="39.5" height="39.5" rx="3.75" fill="#8E8E93" fill-opacity="0.01"/>
<rect x="0.25" y="0.25" width="39.5" height="39.5" rx="3.75" stroke="#8E8E93" stroke-width="0.5"/>
<path d="M19 26H23M21.5 16H22.443C23.753 16 24.409 16 24.964 16.315C25.52 16.629 25.89 17.21 26.631 18.371C27.151 19.185 27.695 19.777 28.462 20.302C29.234 20.832 29.602 21.091 29.805 21.506C30 21.904 30 22.375 30 23.317C30 24.56 30 25.181 29.651 25.576L29.605 25.625C29.238 26 28.659 26 27.503 26H27M21.5 16C21.5 14.586 21.5 13.879 21.06 13.44C20.621 13 19.914 13 18.5 13H13C11.585 13 10.878 13 10.44 13.44C10 13.879 10 14.586 10 16V23C10 24.415 10 25.122 10.44 25.56C10.879 26 11.586 26 13 26M21.5 16V26H17M30 23H29M16 17V21M18 19H14" stroke="#8E8E93" stroke-width="1.5" stroke-linecap="round" stroke-linejoin="round"/>
<path d="M25 28C26.1046 28 27 27.1046 27 26C27 24.8954 26.1046 24 25 24C23.8954 24 23 24.8954 23 26C23 27.1046 23.8954 28 25 28Z" stroke="#8E8E93" stroke-width="1.5" stroke-linecap="round" stroke-linejoin="round"/>
<path d="M15 28C16.1046 28 17 27.1046 17 26C17 24.8954 16.1046 24 15 24C13.8954 24 13 24.8954 13 26C13 27.1046 13.8954 28 15 28Z" stroke="#8E8E93" stroke-width="1.5" stroke-linecap="round" stroke-linejoin="round"/>
</svg>
