<svg width="40" height="40" viewBox="0 0 40 40" fill="none" xmlns="http://www.w3.org/2000/svg">
<rect x="0.25" y="0.25" width="39.5" height="39.5" rx="3.75" fill="#8E8E93" fill-opacity="0.01"/>
<rect x="0.25" y="0.25" width="39.5" height="39.5" rx="3.75" stroke="#8E8E93" stroke-width="0.5"/>
<path d="M20 30.5C14.21 30.5 9.5 25.79 9.5 20C9.5 14.21 14.21 9.5 20 9.5C25.79 9.5 30.5 14.21 30.5 20C30.5 21.965 29.9525 23.885 28.9175 25.5425C28.955 26.0975 29.705 27.95 30.425 29.42C30.5675 29.705 30.5075 30.05 30.2825 30.275C30.0575 30.5 29.7125 30.56 29.4275 30.425C27.935 29.705 26.0525 28.97 25.4975 28.9475C23.8437 29.9631 21.9408 30.5005 20 30.5ZM20 11C15.035 11 11 15.035 11 20C11 24.965 15.035 29 20 29C21.6956 29.0006 23.3569 28.5223 24.7925 27.62C25.0325 27.4625 25.55 27.1475 28.2275 28.25C27.1025 25.595 27.425 25.085 27.575 24.845C28.4975 23.3975 28.9925 21.725 28.9925 20C28.9925 15.035 24.9575 11 19.9925 11H20ZM25.8725 23.6525L24.62 22.82C24.2782 23.3356 23.814 23.7586 23.269 24.0513C22.7239 24.3439 22.1149 24.497 21.4963 24.497C20.8776 24.497 20.2686 24.3439 19.7235 24.0513C19.1785 23.7586 18.7143 23.3356 18.3725 22.82L17.12 23.6525C17.5987 24.374 18.2485 24.9659 19.0114 25.3755C19.7743 25.7851 20.6266 25.9996 21.4925 26C23.255 26 24.8975 25.1225 25.865 23.6525H25.8725ZM24.5 17.75C23.675 17.75 23 18.425 23 19.25C23 20.075 23.675 20.75 24.5 20.75C25.325 20.75 26 20.075 26 19.25C26.0075 18.4325 25.3475 17.7575 24.53 17.75H24.5ZM18.5 17.75C17.675 17.75 17 18.425 17 19.25C17 20.075 17.675 20.75 18.5 20.75C19.325 20.75 20 20.075 20 19.25C20.0075 18.4325 19.3475 17.7575 18.53 17.75H18.5Z" fill="#8E8E93"/>
</svg>
