<svg width="45" height="40" viewBox="0 0 45 40" fill="none" xmlns="http://www.w3.org/2000/svg">
<rect width="45" height="40" rx="4" fill="#FEF4E1"/>
<path d="M33 29.25H13C12.59 29.25 12.25 29.59 12.25 30C12.25 30.41 12.59 30.75 13 30.75H33C33.41 30.75 33.75 30.41 33.75 30C33.75 29.59 33.41 29.25 33 29.25Z" fill="#F9B233"/>
<path opacity="0.4" d="M28 10H18C15 10 14 11.79 14 14V30H32V14C32 11.79 31 10 28 10Z" fill="#DB8400"/>
<path d="M25.06 23H20.93C20.42 23 19.99 23.42 19.99 23.94V30H25.99V23.94C26 23.42 25.58 23 25.06 23Z" fill="#DB8400"/>
<path d="M25.5 15.75H23.75V14C23.75 13.59 23.41 13.25 23 13.25C22.59 13.25 22.25 13.59 22.25 14V15.75H20.5C20.09 15.75 19.75 16.09 19.75 16.5C19.75 16.91 20.09 17.25 20.5 17.25H22.25V19C22.25 19.41 22.59 19.75 23 19.75C23.41 19.75 23.75 19.41 23.75 19V17.25H25.5C25.91 17.25 26.25 16.91 26.25 16.5C26.25 16.09 25.91 15.75 25.5 15.75Z" fill="#DB8400"/>
</svg>
